<?xml version="1.0" standalone="no"?>
<!DOCTYPE svg PUBLIC "-//W3C//DTD SVG 20010904//EN"
 "http://www.w3.org/TR/2001/REC-SVG-20010904/DTD/svg10.dtd">
<svg version="1.0" xmlns="http://www.w3.org/2000/svg"
 width="1024.000000pt" height="1024.000000pt" viewBox="0 0 1024.000000 1024.000000"
 preserveAspectRatio="xMidYMid meet">
<metadata>
Created by potrace 1.14, written by Peter Selinger 2001-2017
</metadata>
<g transform="translate(0.000000,1024.000000) scale(0.100000,-0.100000)"
fill="#000000" stroke="none">
<path d="M4880 8069 c-215 -18 -530 -90 -712 -161 -111 -43 -385 -182 -478
-242 -130 -84 -241 -176 -377 -312 -192 -194 -288 -319 -419 -551 -130 -229
-187 -359 -243 -553 -107 -374 -125 -800 -50 -1190 121 -623 559 -1266 1092
-1602 182 -115 267 -160 427 -226 185 -77 347 -124 541 -156 375 -63 590 -62
944 5 454 86 850 283 1252 622 218 183 424 456 578 766 80 161 126 284 169
458 60 240 71 335 71 643 0 287 -4 328 -51 540 -142 635 -583 1256 -1130 1593
-296 181 -618 299 -964 352 -127 19 -501 28 -650 14z m-38 -615 c2 -299 6
-425 15 -435 6 -8 13 -25 15 -38 3 -23 -2 -26 -82 -46 -195 -49 -314 -103
-480 -216 -251 -170 -419 -373 -520 -628 -31 -79 -78 -271 -91 -370 -20 -161
10 -425 71 -612 72 -221 234 -446 437 -609 150 -121 389 -243 558 -284 l90
-22 -2 -50 c-1 -27 -3 -243 -5 -481 -2 -237 -6 -434 -10 -438 -14 -14 -392 73
-544 126 -273 95 -616 307 -833 514 -104 100 -277 304 -346 410 -156 238 -276
528 -335 813 -17 79 -28 148 -24 153 3 5 77 9 165 9 l159 0 0 -27 c0 -16 3
-64 6 -108 l6 -80 -29 -11 c-36 -13 -63 -66 -63 -124 0 -36 6 -48 39 -81 32
-33 45 -39 80 -39 94 0 141 47 141 138 0 38 -5 55 -25 76 -13 14 -28 26 -34
26 -5 0 -9 50 -9 119 l0 118 134 -1 134 -1 0 -66 c0 -37 3 -79 6 -95 4 -23 -1
-36 -26 -64 -17 -19 -33 -45 -36 -57 -10 -39 6 -92 38 -128 27 -32 35 -35 85
-35 51 0 58 3 94 39 33 32 39 45 39 80 0 54 -22 97 -60 116 l-30 15 6 78 c8
117 9 120 40 114 25 -4 26 -3 21 19 -4 13 -7 44 -7 68 l0 44 -447 -4 -448 -4
-5 62 -5 61 190 7 c105 4 299 5 433 3 l242 -3 0 47 c0 25 3 53 6 62 5 14 -38
15 -430 9 l-436 -6 0 60 0 60 98 6 c53 4 253 7 445 7 270 0 347 3 348 13 0 6
4 33 8 60 8 46 8 47 -19 47 -32 0 -40 24 -40 126 0 62 2 66 41 109 51 55 61
110 31 164 -20 37 -73 71 -110 71 -109 0 -172 -129 -102 -210 32 -38 36 -71
23 -202 l-6 -68 -113 0 c-102 0 -114 2 -124 19 -5 11 -10 70 -10 132 l0 113
32 33 c25 26 32 43 36 85 4 62 -19 106 -78 146 -58 39 -134 13 -171 -59 -37
-74 -15 -160 51 -194 30 -16 30 -16 30 -104 0 -48 -3 -108 -6 -132 l-6 -44
-167 3 c-91 2 -167 5 -169 7 -2 1 9 69 23 151 75 423 363 937 699 1251 201
187 488 372 719 464 175 70 613 173 639 150 4 -3 8 -195 10 -427z m433 364 c4
-40 7 -235 6 -434 -1 -317 0 -363 14 -374 14 -11 17 -10 22 9 3 14 16 24 33
28 21 4 29 12 34 35 3 17 6 205 6 419 l0 389 28 -5 c15 -3 63 -10 107 -16 377
-51 788 -228 1082 -466 441 -358 731 -827 858 -1388 39 -172 54 -155 -139
-155 -192 0 -176 -14 -176 152 0 113 4 138 25 138 19 0 62 55 70 89 8 36 -21
106 -56 137 -51 45 -122 40 -175 -12 -56 -56 -58 -154 -5 -203 27 -26 28 -30
33 -157 l5 -131 -66 -7 c-36 -3 -89 -6 -117 -6 -50 0 -52 1 -58 31 -3 17 -6
69 -6 114 0 70 3 86 23 111 53 68 13 189 -72 215 -51 15 -87 5 -127 -35 -64
-64 -50 -159 29 -199 l37 -19 0 -66 c0 -37 -3 -84 -6 -104 -6 -32 -11 -38 -31
-38 -23 0 -24 -2 -21 -62 l2 -63 436 0 435 0 3 -56 3 -56 -68 -6 c-37 -4 -232
-7 -433 -7 l-365 0 0 -59 0 -59 320 6 c176 2 373 1 437 -3 114 -7 118 -8 114
-28 -3 -12 -8 -39 -11 -59 l-6 -38 -439 0 -440 0 0 -28 c0 -15 -4 -42 -9 -60
-10 -32 -10 -32 27 -32 l38 0 -1 -100 0 -100 -31 -19 c-65 -40 -78 -85 -45
-158 34 -74 121 -97 181 -47 64 55 78 125 35 188 -23 33 -25 47 -25 136 l0
100 130 0 130 0 0 -113 c0 -101 -2 -113 -20 -124 -60 -38 -67 -155 -12 -204
88 -79 219 -33 230 80 5 58 -10 89 -58 118 l-31 18 3 110 3 110 135 3 c135 3
204 -3 196 -16 -2 -4 -16 -63 -30 -132 -66 -317 -195 -620 -384 -905 -104
-157 -374 -418 -572 -552 -255 -173 -457 -271 -719 -347 -115 -34 -325 -76
-377 -76 l-22 0 -4 463 c-2 254 -6 468 -8 476 -3 8 5 17 20 21 14 5 72 23 130
41 131 42 353 151 445 221 107 80 263 242 334 346 226 333 295 792 179 1187
-11 39 -46 124 -78 190 -161 334 -422 570 -785 712 -212 83 -284 97 -491 91
l-174 -5 0 421 c0 232 3 438 6 459 l7 37 147 0 147 0 8 -72z m80 -1034 c266
-47 524 -196 718 -414 151 -168 248 -378 281 -603 49 -335 -16 -633 -195 -887
-72 -103 -237 -265 -334 -329 -224 -147 -434 -211 -694 -211 -323 0 -662 137
-897 362 -188 180 -284 353 -340 608 -37 170 -39 377 -5 523 55 240 198 486
369 634 325 282 696 389 1097 317z m-261 -2630 c62 -11 92 -12 99 -5 6 6 28
11 49 11 l38 0 1 -157 c3 -285 -2 -737 -8 -771 l-5 -32 -148 1 -148 1 -7 122
c-5 89 -1 825 4 844 2 5 41 1 125 -14z"/>
<path d="M4390 7569 c-75 -34 -150 -122 -150 -177 0 -17 -11 -20 -115 -26
-113 -6 -116 -6 -155 20 -28 19 -55 27 -86 28 -41 1 -49 -3 -85 -41 -44 -48
-51 -90 -23 -148 24 -51 57 -68 120 -63 60 5 88 24 104 72 l10 31 113 2 112 2
28 -49 c71 -126 221 -174 345 -111 106 54 163 217 113 327 -26 57 -75 109
-125 133 -56 28 -145 28 -206 0z m161 -132 c61 -41 74 -98 39 -167 -24 -46
-45 -60 -96 -60 -29 0 -44 8 -75 39 -33 33 -39 45 -39 82 0 103 92 160 171
106z"/>
<path d="M4010 7029 c-23 -5 -48 -22 -74 -51 -36 -41 -38 -46 -34 -99 7 -94
67 -153 157 -151 50 0 84 21 119 73 20 28 23 43 20 87 -9 103 -89 163 -188
141z m77 -125 c3 -8 1 -26 -5 -40 -19 -39 -82 -27 -82 16 0 9 5 21 12 28 17
17 67 15 75 -4z"/>
<path d="M3474 7010 c-141 -20 -246 -177 -215 -322 35 -164 196 -256 354 -202
93 32 167 149 167 264 -1 156 -149 282 -306 260z m103 -156 c37 -24 63 -74 63
-122 0 -34 -6 -49 -34 -80 -30 -32 -40 -37 -79 -37 -78 0 -128 54 -129 139 -2
99 97 154 179 100z"/>
<path d="M3456 4660 c-20 -28 -43 -50 -52 -50 -8 0 -36 16 -61 35 -50 38 -74
43 -97 19 -32 -31 -11 -101 34 -116 11 -3 11 -13 2 -50 -18 -69 -15 -115 10
-165 l22 -43 -37 -34 c-46 -42 -50 -85 -12 -110 36 -23 55 -20 92 16 l34 33
43 -48 c39 -41 49 -47 85 -47 37 0 44 4 62 35 36 60 61 64 122 22 l28 -19 25
23 c31 29 30 47 -4 94 l-29 38 19 51 c19 50 20 106 3 163 -5 16 1 28 24 49 38
33 40 66 5 93 l-25 20 -41 -29 c-56 -41 -78 -39 -124 14 -22 24 -51 47 -66 50
-23 5 -31 0 -62 -44z m125 -140 c31 -27 60 -61 63 -75 12 -47 -13 -107 -65
-157 -27 -27 -54 -48 -60 -48 -6 0 -40 28 -76 63 l-65 62 5 60 c4 41 11 63 22
70 9 6 38 24 63 42 26 17 49 31 52 32 3 0 30 -22 61 -49z"/>
<path d="M3977 4380 c-64 -51 -84 -133 -49 -199 39 -72 153 -95 219 -45 84 64
85 169 3 238 -41 34 -133 37 -173 6z m121 -111 c4 -33 -20 -53 -53 -45 -19 5
-25 13 -25 35 0 36 8 43 45 39 24 -2 31 -8 33 -29z"/>
<path d="M4437 4060 c-21 -6 -50 -16 -66 -24 -34 -18 -98 -82 -116 -117 -14
-26 -14 -26 -131 -24 -114 2 -118 3 -137 29 -41 57 -114 72 -174 35 -114 -71
-64 -249 71 -249 50 0 83 18 108 58 19 31 24 34 57 28 20 -3 68 -6 107 -6 l71
0 12 -42 c38 -127 135 -202 258 -200 136 2 231 100 241 248 5 79 -12 132 -63
192 -53 63 -152 93 -238 72z m97 -134 c95 -40 104 -163 16 -233 -35 -29 -110
-7 -149 43 -15 19 -21 41 -21 78 0 44 4 56 28 79 24 23 63 45 85 46 4 1 22 -5
41 -13z"/>
<path d="M5140 7813 c-19 -6 -45 -12 -56 -12 -17 -1 -23 -9 -28 -38 -8 -50 -8
-587 0 -646 l6 -45 55 -4 c47 -3 54 -1 58 17 7 36 13 709 6 725 -5 13 -11 14
-41 3z"/>
<path d="M5713 7589 c-124 -23 -216 -131 -215 -253 0 -74 21 -128 70 -179 92
-95 224 -109 337 -34 35 23 95 103 95 127 0 12 22 15 120 17 106 1 120 -1 120
-15 0 -29 38 -80 71 -98 130 -67 242 144 128 240 -47 40 -128 31 -169 -19 -11
-13 -24 -15 -79 -9 -36 4 -93 8 -125 8 l-59 1 -14 41 c-19 56 -76 120 -132
148 -58 29 -95 35 -148 25z m87 -144 c68 -35 90 -113 51 -185 -47 -90 -181
-65 -212 39 -10 35 -9 45 11 86 33 67 91 91 150 60z"/>
<path d="M6134 7020 c-30 -12 -81 -74 -89 -109 -9 -44 20 -125 56 -155 84 -71
209 -26 239 85 13 46 7 70 -27 121 -39 58 -117 83 -179 58z m101 -120 c3 -10
1 -29 -5 -40 -15 -27 -73 -25 -78 3 -9 44 70 79 83 37z"/>
<path d="M6622 6994 c-56 -28 -112 -88 -137 -147 -8 -21 -15 -66 -15 -104 1
-292 371 -378 508 -118 35 66 37 170 5 230 -74 140 -235 202 -361 139z m180
-121 c50 -42 67 -65 74 -100 9 -49 -3 -82 -45 -125 -32 -32 -45 -38 -80 -38
-51 0 -90 19 -126 62 -24 28 -27 38 -23 87 4 49 9 58 51 98 57 53 98 58 149
16z"/>
<path d="M6635 4656 c-57 -27 -126 -93 -152 -145 -25 -53 -29 -159 -8 -219 47
-130 140 -197 275 -197 64 1 83 5 129 30 138 76 197 246 130 377 -75 148 -242
216 -374 154z m191 -114 c51 -28 94 -96 94 -150 0 -50 -44 -127 -83 -145 -75
-36 -144 -30 -195 17 -107 96 -60 265 82 296 32 7 68 0 102 -18z"/>
<path d="M6658 4472 c-15 -3 -18 -15 -18 -71 0 -77 9 -91 61 -91 l36 0 7 71
c3 39 4 74 1 79 -6 9 -62 17 -87 12z"/>
<path d="M6782 4393 l3 -78 35 0 35 0 6 60 c8 87 4 95 -43 95 l-39 0 3 -77z"/>
<path d="M6132 4394 c-41 -21 -61 -50 -73 -104 -20 -88 31 -168 114 -177 91
-11 148 32 163 123 17 111 -107 207 -204 158z m82 -90 c20 -8 21 -67 2 -83
-25 -21 -56 4 -56 44 0 39 19 52 54 39z"/>
<path d="M5664 4051 c-56 -25 -121 -85 -147 -135 -32 -62 -30 -165 5 -231 31
-59 57 -85 117 -115 81 -41 206 -23 283 40 38 31 78 105 78 143 0 23 3 24 111
31 l111 6 44 -40 c38 -35 50 -40 90 -40 40 0 51 5 84 38 49 48 59 96 34 149
-47 95 -180 111 -225 26 -12 -21 -18 -23 -99 -23 -48 0 -101 -3 -119 -6 -27
-6 -32 -3 -41 21 -47 123 -207 190 -326 136z m152 -130 c31 -19 64 -74 64
-108 0 -10 -9 -37 -19 -60 -32 -69 -103 -92 -166 -53 -62 38 -81 118 -45 178
35 58 110 77 166 43z"/>
<path d="M5030 6544 c-14 -2 -56 -9 -95 -15 -357 -57 -588 -371 -525 -710 12
-65 59 -162 100 -206 99 -108 201 -145 505 -184 151 -19 324 -57 368 -81 158
-88 124 -299 -63 -386 -50 -24 -67 -26 -175 -26 -97 1 -131 5 -177 22 -116 42
-181 109 -223 227 -22 60 -32 75 -48 70 -7 -2 -86 -6 -177 -9 -91 -3 -166 -5
-167 -6 -1 0 10 -42 23 -92 76 -286 240 -450 519 -520 119 -29 355 -32 454 -4
239 65 415 223 479 426 12 39 17 90 17 175 0 118 -1 121 -37 198 -66 138 -173
224 -341 276 -38 11 -161 34 -274 51 -298 44 -337 54 -382 99 -73 73 -68 182
13 265 59 60 144 88 273 88 192 1 315 -72 362 -215 l23 -67 184 0 184 0 -6 48
c-9 69 -64 208 -107 274 -91 137 -257 250 -415 283 -75 15 -247 27 -292 19z"/>
<path d="M5150 4099 c-14 -4 -39 -7 -56 -8 l-31 -1 -6 -197 c-4 -108 -7 -290
-7 -404 l0 -207 64 -4 64 -3 4 372 c2 204 2 391 -1 415 -6 41 -8 44 -31 37z"/>
<path d="M3718 2259 c-10 -5 -18 -17 -18 -24 0 -23 14 -17 27 10 6 14 10 25
10 25 -1 0 -10 -5 -19 -11z"/>
</g>
</svg>
